<svg width="556" height="556" viewBox="0 0 556 556" fill="none" xmlns="http://www.w3.org/2000/svg">
<ellipse cx="279.5" cy="277.548" rx="238.5" ry="236.836" fill="#565656" fill-opacity="0.2"/>
<ellipse cx="277.528" cy="277.994" rx="238.211" ry="237.75" stroke="black" stroke-width="4"/>
<ellipse cx="277.521" cy="277.999" rx="125.892" ry="125.427" stroke="black" stroke-width="4"/>
<path fill-rule="evenodd" clip-rule="evenodd" d="M278.012 279.525V306.324H279.012V279.525H305.809V278.525H279.012L279.012 250.725L278.012 250.725L278.012 278.525H250.211V279.525H278.012Z" fill="black"/>
<path d="M278.012 306.324H276.512V307.824H278.012V306.324ZM278.012 279.525H279.512V278.025H278.012V279.525ZM279.012 306.324V307.824H280.512V306.324H279.012ZM279.012 279.525V278.025H277.512V279.525H279.012ZM305.809 279.525V281.025H307.309V279.525H305.809ZM305.809 278.525H307.309V277.025H305.809V278.525ZM279.012 278.525L277.512 278.525L277.512 280.025H279.012V278.525ZM279.012 250.725L280.512 250.725L280.512 249.225L279.012 249.225L279.012 250.725ZM278.012 250.725L278.012 249.225L276.512 249.225L276.512 250.725L278.012 250.725ZM278.012 278.525V280.025H279.512L279.512 278.525L278.012 278.525ZM250.211 278.525V277.025H248.711V278.525H250.211ZM250.211 279.525H248.711V281.025H250.211V279.525ZM279.512 306.324V279.525H276.512V306.324H279.512ZM279.012 304.824H278.012V307.824H279.012V304.824ZM277.512 279.525V306.324H280.512V279.525H277.512ZM279.012 281.025H305.809V278.025H279.012V281.025ZM307.309 279.525V278.525H304.309V279.525H307.309ZM305.809 277.025H279.012V280.025H305.809V277.025ZM277.512 250.725L277.512 278.525L280.512 278.525L280.512 250.725L277.512 250.725ZM278.012 252.225L279.012 252.225L279.012 249.225L278.012 249.225L278.012 252.225ZM279.512 278.525L279.512 250.725L276.512 250.725L276.512 278.525L279.512 278.525ZM278.012 277.025H250.211V280.025H278.012V277.025ZM248.711 278.525V279.525H251.711V278.525H248.711ZM250.211 281.025H278.012V278.025H250.211V281.025Z" fill="black"/>
<line x1="361.312" y1="276.934" x2="556" y2="276.934" stroke="black" stroke-width="4"/>
<line x1="280.93" y1="8.80396e-08" x2="280.93" y2="195.629" stroke="black" stroke-width="4"/>
<line x1="280.93" y1="361.307" x2="280.93" y2="555.999" stroke="black" stroke-width="4"/>
<line y1="276.934" x2="194.688" y2="276.934" stroke="black" stroke-width="4"/>
</svg>
