<svg width="556" height="560" viewBox="0 0 556 560" fill="none" xmlns="http://www.w3.org/2000/svg">
<circle cx="279.5" cy="279.5" r="238.5" fill="#565656" fill-opacity="0.2"/>
<ellipse cx="277.528" cy="279.948" rx="238.211" ry="239.421" stroke="black" stroke-width="4"/>
<ellipse cx="277.521" cy="279.953" rx="125.892" ry="126.309" stroke="black" stroke-width="4"/>
<path fill-rule="evenodd" clip-rule="evenodd" d="M278.012 281.483V308.477H279.012V281.483H305.809V280.483H279.012L279.012 252.486L278.012 252.486L278.012 280.483H250.211V281.483H278.012Z" fill="black"/>
<path d="M278.012 308.477H276.512V309.977H278.012V308.477ZM278.012 281.483H279.512V279.983H278.012V281.483ZM279.012 308.477V309.977H280.512V308.477H279.012ZM279.012 281.483V279.983H277.512V281.483H279.012ZM305.809 281.483V282.983H307.309V281.483H305.809ZM305.809 280.483H307.309V278.983H305.809V280.483ZM279.012 280.483H277.512V281.983H279.012V280.483ZM279.012 252.486L280.512 252.486V250.986L279.012 250.986V252.486ZM278.012 252.486V250.986L276.512 250.986V252.486L278.012 252.486ZM278.012 280.483V281.983H279.512V280.483H278.012ZM250.211 280.483V278.983H248.711V280.483H250.211ZM250.211 281.483H248.711V282.983H250.211V281.483ZM279.512 308.477V281.483H276.512V308.477H279.512ZM279.012 306.977H278.012V309.977H279.012V306.977ZM277.512 281.483V308.477H280.512V281.483H277.512ZM279.012 282.983H305.809V279.983H279.012V282.983ZM307.309 281.483V280.483H304.309V281.483H307.309ZM305.809 278.983H279.012V281.983H305.809V278.983ZM277.512 252.486L277.512 280.483H280.512L280.512 252.486L277.512 252.486ZM278.012 253.986H279.012V250.986H278.012V253.986ZM279.512 280.483L279.512 252.486L276.512 252.486L276.512 280.483H279.512ZM278.012 278.983H250.211V281.983H278.012V278.983ZM248.711 280.483V281.483H251.711V280.483H248.711ZM250.211 282.983H278.012V279.983H250.211V282.983Z" fill="black"/>
<line x1="361.312" y1="278.895" x2="556" y2="278.895" stroke="black" stroke-width="4"/>
<line x1="280.93" y1="8.80396e-08" x2="280.93" y2="197.004" stroke="black" stroke-width="4"/>
<line x1="280.93" y1="363.846" x2="280.93" y2="559.907" stroke="black" stroke-width="4"/>
<line y1="278.895" x2="194.688" y2="278.895" stroke="black" stroke-width="4"/>
</svg>
