<svg width="603" height="1348" viewBox="0 0 603 1348" fill="none" xmlns="http://www.w3.org/2000/svg">
<g style="mix-blend-mode:multiply">
<ellipse cx="47.8144" cy="843.583" rx="47.8144" ry="46.954" fill="#A9F807" fill-opacity="0.84"/>
<ellipse cx="465.1" cy="46.954" rx="47.8144" ry="46.954" fill="#A9F807" fill-opacity="0.84"/>
<ellipse cx="487.459" cy="562.839" rx="47.8144" ry="46.954" fill="#A9F807" fill-opacity="0.84"/>
<ellipse cx="219.201" cy="903.102" rx="47.8144" ry="46.954" fill="#A9F807" fill-opacity="0.84"/>
<ellipse cx="174.49" cy="332.337" rx="47.8144" ry="46.954" fill="#A9F807" fill-opacity="0.84"/>
<ellipse cx="494.912" cy="343.313" rx="47.8144" ry="46.954" fill="#A9F807" fill-opacity="0.84"/>
<ellipse cx="241.557" cy="1199.46" rx="47.8144" ry="46.954" fill="#A9F807" fill-opacity="0.84"/>
<ellipse cx="183.018" cy="628.435" rx="47.8144" ry="46.954" fill="#A9F807" fill-opacity="0.84"/>
<ellipse cx="159.588" cy="134.765" rx="47.8144" ry="46.954" fill="#A9F807" fill-opacity="0.84"/>
<ellipse cx="472.56" cy="145.739" rx="47.8144" ry="46.954" fill="#A9F807" fill-opacity="0.84"/>
<ellipse cx="502.361" cy="661.626" rx="47.8144" ry="46.954" fill="#A9F807" fill-opacity="0.84"/>
<ellipse cx="226.654" cy="1001.89" rx="47.8144" ry="46.954" fill="#A9F807" fill-opacity="0.84"/>
<ellipse cx="181.947" cy="431.124" rx="47.8144" ry="46.954" fill="#A9F807" fill-opacity="0.84"/>
<ellipse cx="554.521" cy="1254.34" rx="47.8144" ry="46.954" fill="#A9F807" fill-opacity="0.84"/>
<ellipse cx="183.018" cy="1270" rx="47.8144" ry="46.954" fill="#A9F807" fill-opacity="0.84"/>
<ellipse cx="204.299" cy="727.481" rx="47.8144" ry="46.954" fill="#A9F807" fill-opacity="0.84"/>
<ellipse cx="167.045" cy="233.552" rx="47.8144" ry="46.954" fill="#A9F807" fill-opacity="0.84"/>
<ellipse cx="480.01" cy="244.528" rx="47.8144" ry="46.954" fill="#A9F807" fill-opacity="0.84"/>
<ellipse cx="517.268" cy="760.411" rx="47.8144" ry="46.954" fill="#A9F807" fill-opacity="0.84"/>
<ellipse cx="234.107" cy="1100.67" rx="47.8144" ry="46.954" fill="#A9F807" fill-opacity="0.84"/>
<ellipse cx="189.396" cy="529.911" rx="47.8144" ry="46.954" fill="#A9F807" fill-opacity="0.84"/>
<ellipse cx="211.752" cy="826.267" rx="47.8144" ry="46.954" fill="#A9F807" fill-opacity="0.84"/>
<ellipse cx="256.463" cy="57.9306" rx="47.8144" ry="46.954" fill="#A9F807" fill-opacity="0.84"/>
<ellipse cx="323.525" cy="925.056" rx="47.8144" ry="46.954" fill="#A9F807" fill-opacity="0.84"/>
<ellipse cx="278.814" cy="354.29" rx="47.8144" ry="46.954" fill="#A9F807" fill-opacity="0.84"/>
<ellipse cx="351.775" cy="1219.61" rx="47.8144" ry="46.954" fill="#A9F807" fill-opacity="0.84"/>
<ellipse cx="301.17" cy="639.673" rx="47.8144" ry="46.954" fill="#A9F807" fill-opacity="0.84"/>
<circle cx="265" cy="151" r="48" fill="#A9F807" fill-opacity="0.84"/>
<ellipse cx="330.975" cy="1023.84" rx="47.8144" ry="46.954" fill="#A9F807" fill-opacity="0.84"/>
<ellipse cx="286.267" cy="453.075" rx="47.8144" ry="46.954" fill="#A9F807" fill-opacity="0.84"/>
<ellipse cx="162.295" cy="1140.14" rx="47.8144" ry="46.954" fill="#A9F807" fill-opacity="0.84"/>
<ellipse cx="308.623" cy="738.46" rx="47.8144" ry="46.954" fill="#A9F807" fill-opacity="0.84"/>
<ellipse cx="271.365" cy="255.505" rx="47.8144" ry="46.954" fill="#A9F807" fill-opacity="0.84"/>
<ellipse cx="338.428" cy="1122.63" rx="47.8144" ry="46.954" fill="#A9F807" fill-opacity="0.84"/>
<ellipse cx="293.717" cy="540.886" rx="47.8144" ry="46.954" fill="#A9F807" fill-opacity="0.84"/>
<ellipse cx="316.072" cy="837.243" rx="47.8144" ry="46.954" fill="#A9F807" fill-opacity="0.84"/>
<ellipse cx="47.8144" cy="79.8818" rx="47.8144" ry="46.954" fill="#A9F807" fill-opacity="0.84"/>
<ellipse cx="360.783" cy="90.8583" rx="47.8144" ry="46.954" fill="#A9F807" fill-opacity="0.84"/>
<ellipse cx="383.135" cy="584.792" rx="47.8144" ry="46.954" fill="#A9F807" fill-opacity="0.84"/>
<ellipse cx="114.881" cy="947.009" rx="47.8144" ry="46.954" fill="#A9F807" fill-opacity="0.84"/>
<ellipse cx="70.1698" cy="376.243" rx="47.8144" ry="46.954" fill="#A9F807" fill-opacity="0.84"/>
<ellipse cx="390.592" cy="387.22" rx="47.8144" ry="46.954" fill="#A9F807" fill-opacity="0.84"/>
<ellipse cx="427.85" cy="881.151" rx="47.8144" ry="46.954" fill="#A9F807" fill-opacity="0.84"/>
<ellipse cx="442.748" cy="1177.51" rx="47.8144" ry="46.954" fill="#A9F807" fill-opacity="0.84"/>
<ellipse cx="63.162" cy="1173.02" rx="47.8144" ry="46.954" fill="#A9F807" fill-opacity="0.84"/>
<ellipse cx="66.5644" cy="637.157" rx="47.8144" ry="46.954" fill="#A9F807" fill-opacity="0.84"/>
<ellipse cx="55.2675" cy="178.669" rx="47.8144" ry="46.954" fill="#A9F807" fill-opacity="0.84"/>
<ellipse cx="368.236" cy="189.645" rx="47.8144" ry="46.954" fill="#A9F807" fill-opacity="0.84"/>
<ellipse cx="398.041" cy="683.577" rx="47.8144" ry="46.954" fill="#A9F807" fill-opacity="0.84"/>
<ellipse cx="122.334" cy="1045.79" rx="47.8144" ry="46.954" fill="#A9F807" fill-opacity="0.84"/>
<ellipse cx="405.49" cy="486.007" rx="47.8144" ry="46.954" fill="#A9F807" fill-opacity="0.84"/>
<ellipse cx="435.303" cy="979.936" rx="47.8144" ry="46.954" fill="#A9F807" fill-opacity="0.84"/>
<ellipse cx="453.033" cy="1268.32" rx="47.8144" ry="46.954" fill="#A9F807" fill-opacity="0.84"/>
<ellipse cx="58.8144" cy="1300.95" rx="47.8144" ry="46.954" fill="#A9F807" fill-opacity="0.84"/>
<ellipse cx="67.5527" cy="737.948" rx="47.8144" ry="46.954" fill="#A9F807" fill-opacity="0.84"/>
<ellipse cx="62.7206" cy="277.456" rx="47.8144" ry="46.954" fill="#A9F807" fill-opacity="0.84"/>
<ellipse cx="375.685" cy="288.431" rx="47.8144" ry="46.954" fill="#A9F807" fill-opacity="0.84"/>
<ellipse cx="412.947" cy="782.362" rx="47.8144" ry="46.954" fill="#A9F807" fill-opacity="0.84"/>
<ellipse cx="420.396" cy="1078.72" rx="47.8144" ry="46.954" fill="#A9F807" fill-opacity="0.84"/>
<ellipse cx="55.7089" cy="1074.24" rx="47.8144" ry="46.954" fill="#A9F807" fill-opacity="0.84"/>
<ellipse cx="51.7636" cy="500.509" rx="47.8144" ry="46.954" fill="#A9F807" fill-opacity="0.84"/>
<ellipse cx="107.428" cy="848.22" rx="47.8144" ry="46.954" fill="#A9F807" fill-opacity="0.84"/>
</g>
</svg>
