<svg width="543" height="682" viewBox="0 0 543 682" fill="none" xmlns="http://www.w3.org/2000/svg">
<path d="M6.37005 639.97C34.2838 716.091 94.5696 671.686 121.223 639.97C234.042 680.486 288.414 642.528 301.499 618.484C308.767 608.253 322.433 583.186 318.945 564.77C315.456 546.353 323.306 523.333 327.668 514.124C346.568 480.36 337.845 509.52 395.998 500.312C454.152 491.104 439.613 386.744 395.998 397.487C361.106 406.081 361.106 385.721 365.468 374.467C374.675 358.608 391.928 319.217 387.275 288.524C382.623 257.83 358.198 248.109 346.568 247.086C341.722 246.063 331.156 246.473 327.668 256.295C324.179 266.117 316.522 265.503 313.129 263.968C266.607 246.779 270.483 233.274 278.237 228.67C349.184 253.226 382.428 218.439 390.182 197.976C385.53 146.41 406.66 129.426 417.806 127.38C507.362 140.886 538.474 97.1976 542.835 73.6656C544.29 49.1103 536.73 -7.32563e-06 494.859 0C442.52 9.15703e-06 448.336 10.7429 423.621 29.1593C403.849 43.8924 365.952 32.2287 349.475 24.5552C259.919 3.68332 230.745 55.7608 227.352 84.4086C232.005 147.024 212.814 167.793 202.638 170.351C146.81 181.402 132.853 186.21 132.853 187.233C82.8401 228.977 115.891 258.853 138.668 268.572C153.207 273.176 181.411 290.979 177.922 325.356C174.433 359.734 176.469 370.375 177.922 371.398C181.799 384.186 197.113 410.685 227.352 414.369C257.593 418.052 263.214 434.32 262.245 441.993C257.883 446.598 246.252 454.578 234.622 449.667C222.991 444.756 194.883 447.621 182.283 449.667C171.137 454.783 147.391 470.539 141.576 492.639C134.307 520.263 144.484 532.541 145.937 540.214C147.101 546.353 141.576 547.888 138.668 547.888H87.7851C49.016 546.864 -21.5436 563.849 6.37005 639.97Z" fill="black"/>
</svg>
