<svg width="333" height="546" viewBox="0 0 333 546" fill="none" xmlns="http://www.w3.org/2000/svg">
<path d="M5.10317 512.351C27.465 573.293 75.7602 537.743 97.1127 512.351C187.492 544.788 231.05 514.399 241.532 495.15C247.355 486.959 258.303 466.891 255.508 452.147C252.713 437.403 259.002 418.973 262.496 411.601C277.637 384.57 270.649 407.915 317.236 400.543C363.823 393.171 352.176 309.622 317.236 318.223C289.284 325.103 289.284 308.803 292.778 299.793C300.154 287.097 313.975 255.561 310.248 230.988C306.521 206.415 286.954 198.633 277.637 197.814C273.755 196.995 265.291 197.323 262.496 205.186C259.701 213.05 253.567 212.558 250.849 211.329C213.58 197.568 216.685 186.756 222.897 183.07C279.733 202.729 306.365 174.879 312.577 158.497C308.85 117.214 325.777 103.617 334.706 101.979C406.45 112.791 431.374 77.815 434.868 58.9756C436.033 39.317 429.977 -7.51795e-05 396.434 -6.93147e-05C354.505 -6.19837e-05 359.164 8.60055 339.365 23.3445C323.525 35.1396 293.166 25.8018 279.966 19.6585C208.222 2.94875 184.851 44.6413 182.133 67.5763C185.86 117.705 170.486 134.333 162.334 136.381C117.61 145.228 106.429 149.077 106.429 149.896C66.3637 183.316 92.8411 207.234 111.088 215.015C122.735 218.701 145.329 232.954 142.534 260.476C139.739 287.998 141.37 296.517 142.534 297.336C145.64 307.574 157.908 328.789 182.133 331.738C206.359 334.687 210.862 347.711 210.086 353.854C206.591 357.54 197.274 363.929 187.957 359.997C178.639 356.066 156.122 358.359 146.028 359.997C137.099 364.093 118.076 376.707 113.417 394.4C107.594 416.516 115.747 426.345 116.911 432.488C117.843 437.403 113.417 438.632 111.088 438.632L70.3251 438.632C39.267 437.812 -17.2586 451.41 5.10317 512.351Z" fill="black"/>
</svg>
