<svg width="461" height="665" viewBox="0 0 461 665" fill="none" xmlns="http://www.w3.org/2000/svg">
<path d="M342.803 662.502C411.328 674.483 404.244 610.003 392.138 576.264C470.689 509.088 465.852 451.836 453.617 431.606C449.14 421.722 436.394 400.613 421.218 395.263C406.04 389.914 392.316 374.057 387.351 366.797C370.393 337.995 388.302 357.164 406.444 309.514C424.584 261.865 340.833 227.62 330.077 265.018C321.472 294.935 306.351 286.125 299.866 277.979C292.043 264.204 270.199 234.203 245.405 224.414C220.61 214.624 202.9 228.758 197.145 237.048C194.304 240.244 190.07 248.353 195.865 255.224C201.661 262.093 197.917 267.577 195.319 269.461C162.571 296.954 154.205 288.198 154.117 280.383C202.828 237.739 191.272 197.724 179.405 183.048C139.11 164.226 135.572 141.011 138.841 131.757C187.338 70.3578 168.257 28.0917 152.653 14.6336C135.041 2.9159 95.3202 -12.6599 77.3351 18.7785C54.8537 58.0765 65.3302 58.3589 68.3916 84.8859C70.8407 106.107 45.9001 129.515 33.1236 138.566C-20.8457 196.777 5.3001 241.218 25.1192 256.162C73.6208 279.766 80.8031 303.162 78.3314 311.91C62.5578 358.61 60.1342 371.171 60.894 371.614C70.414 427.229 106.799 415.341 123.801 402.446C133.465 393.522 158.802 380.049 182.834 397.545C206.867 415.041 215.644 418.118 217.028 417.469C228.191 420.093 254.45 420.062 270.174 398.949C285.9 377.838 300.396 380.657 305.679 384.705C307.225 389.973 308.156 402.159 299.512 408.767C290.869 415.375 280.924 437.719 277.032 448.065C276.043 458.648 277.545 483.295 291.46 497.226C308.854 514.638 322.344 512.31 328.667 514.539C333.726 516.322 332.493 521.135 331.244 523.317L309.388 561.523C291.974 590.19 274.28 650.519 342.803 662.502Z" fill="black"/>
</svg>
