<svg width="375" height="536" viewBox="0 0 375 536" fill="none" xmlns="http://www.w3.org/2000/svg">
<path d="M278.853 533.986C334.594 543.643 328.832 491.671 318.984 464.477C382.881 410.332 378.947 364.186 368.994 347.881C365.352 339.914 354.984 322.9 342.639 318.588C330.293 314.276 319.129 301.495 315.09 295.644C301.296 272.429 315.864 287.879 330.621 249.473C345.377 211.067 277.25 183.465 268.501 213.608C261.501 237.722 249.201 230.621 243.926 224.055C237.562 212.952 219.793 188.771 199.624 180.881C179.455 172.99 165.049 184.382 160.367 191.064C158.056 193.64 154.612 200.176 159.326 205.714C164.041 211.251 160.995 215.671 158.882 217.189C132.243 239.349 125.438 232.292 125.366 225.993C164.99 191.621 155.59 159.368 145.937 147.539C113.159 132.368 110.281 113.657 112.94 106.198C152.39 56.7092 136.868 22.6421 124.175 11.7946C109.849 2.34999 77.538 -10.2043 62.9081 15.1355C44.6206 46.8103 53.1427 47.0379 55.633 68.419C57.6252 85.5239 37.3373 104.391 26.9443 111.686C-16.957 158.605 4.31128 194.425 20.4331 206.47C59.8867 225.495 65.7291 244.353 63.7185 251.404C50.8875 289.045 48.916 299.169 49.5341 299.526C57.2781 344.353 86.8752 334.771 100.706 324.377C108.567 317.184 129.177 306.325 148.726 320.427C168.276 334.529 175.415 337.009 176.541 336.486C185.622 338.601 206.982 338.576 219.773 321.559C232.565 304.543 244.357 306.815 248.654 310.078C249.912 314.324 250.669 324.146 243.638 329.472C236.607 334.798 228.517 352.808 225.351 361.147C224.547 369.677 225.769 389.543 237.088 400.771C251.237 414.806 262.21 412.929 267.354 414.726C271.469 416.163 270.466 420.042 269.45 421.801L251.671 452.596C237.506 475.702 223.113 524.328 278.853 533.986Z" fill="black"/>
</svg>
