<svg width="1147" height="1206" viewBox="0 0 1147 1206" fill="none" xmlns="http://www.w3.org/2000/svg">
<ellipse cx="353.327" cy="1031.66" rx="53.5612" ry="55.2882" transform="rotate(-85.8013 353.327 1031.66)" fill="black"/>
<ellipse cx="703.526" cy="1021.7" rx="53.5612" ry="55.2882" transform="rotate(-85.8013 703.526 1021.7)" fill="black"/>
<ellipse cx="119.854" cy="1038.29" rx="53.5612" ry="55.2882" transform="rotate(-85.8013 119.854 1038.29)" fill="black"/>
<ellipse cx="470.057" cy="1028.34" rx="53.5612" ry="55.2882" transform="rotate(-85.8013 470.057 1028.34)" fill="black"/>
<ellipse cx="820.261" cy="1018.38" rx="53.5612" ry="55.2882" transform="rotate(-85.8013 820.261 1018.38)" fill="black"/>
<ellipse cx="236.589" cy="1034.97" rx="53.5612" ry="55.2882" transform="rotate(-85.8013 236.589 1034.97)" fill="black"/>
<ellipse cx="586.792" cy="1025.02" rx="53.5612" ry="55.2882" transform="rotate(-85.8013 586.792 1025.02)" fill="black"/>
<ellipse cx="936.995" cy="1015.06" rx="53.5612" ry="55.2882" transform="rotate(-85.8013 936.995 1015.06)" fill="black"/>
<ellipse cx="374.612" cy="920.836" rx="53.5612" ry="55.2882" transform="rotate(-85.8013 374.612 920.836)" fill="black"/>
<ellipse cx="726.561" cy="888.634" rx="53.5612" ry="55.2882" transform="rotate(-85.8013 726.561 888.634)" fill="black"/>
<ellipse cx="140.897" cy="934.898" rx="53.5612" ry="55.2882" transform="rotate(-85.8013 140.897 934.898)" fill="black"/>
<ellipse cx="491.593" cy="910.09" rx="53.5612" ry="55.2882" transform="rotate(-85.8013 491.593 910.09)" fill="black"/>
<ellipse cx="843.542" cy="877.888" rx="53.5612" ry="55.2882" transform="rotate(-85.8013 843.542 877.888)" fill="black"/>
<ellipse cx="257.636" cy="931.58" rx="53.5612" ry="55.2882" transform="rotate(-85.8013 257.636 931.58)" fill="black"/>
<ellipse cx="608.569" cy="899.343" rx="53.5612" ry="55.2882" transform="rotate(-85.8013 608.569 899.343)" fill="black"/>
<ellipse cx="960.272" cy="874.566" rx="53.5612" ry="55.2882" transform="rotate(-85.8013 960.272 874.566)" fill="black"/>
<ellipse cx="395.417" cy="824.879" rx="53.5612" ry="55.2882" transform="rotate(-85.8013 395.417 824.879)" fill="black"/>
<ellipse cx="745.62" cy="814.927" rx="53.5612" ry="55.2882" transform="rotate(-85.8013 745.62 814.927)" fill="black"/>
<ellipse cx="161.944" cy="831.508" rx="53.5612" ry="55.2882" transform="rotate(-85.8013 161.944 831.508)" fill="black"/>
<ellipse cx="512.151" cy="821.556" rx="53.5612" ry="55.2882" transform="rotate(-85.8013 512.151 821.556)" fill="black"/>
<ellipse cx="862.354" cy="811.611" rx="53.5612" ry="55.2882" transform="rotate(-85.8013 862.354 811.611)" fill="black"/>
<ellipse cx="278.678" cy="828.191" rx="53.5612" ry="55.2882" transform="rotate(-85.8013 278.678 828.191)" fill="black"/>
<ellipse cx="628.886" cy="818.244" rx="53.5612" ry="55.2882" transform="rotate(-85.8013 628.886 818.244)" fill="black"/>
<ellipse cx="979.089" cy="808.291" rx="53.5612" ry="55.2882" transform="rotate(-85.8013 979.089 808.291)" fill="black"/>
<ellipse cx="91.4441" cy="624.884" rx="53.5612" ry="55.2882" transform="rotate(-85.8013 91.4441 624.884)" fill="black"/>
<ellipse cx="111.721" cy="316.519" rx="53.5612" ry="55.2882" transform="rotate(-85.8013 111.721 316.519)" fill="black"/>
<ellipse cx="719.554" cy="330.537" rx="53.5612" ry="55.2882" transform="rotate(-85.8013 719.554 330.537)" fill="black"/>
<ellipse cx="1059.4" cy="952.449" rx="53.5612" ry="55.2882" transform="rotate(-85.8013 1059.4 952.449)" fill="black"/>
<ellipse cx="1099.19" cy="596.83" rx="53.5612" ry="55.2882" transform="rotate(-85.8013 1099.19 596.83)" fill="black"/>
<ellipse cx="424.596" cy="617.644" rx="53.5612" ry="55.2882" transform="rotate(-85.8013 424.596 617.644)" fill="black"/>
<ellipse cx="462.749" cy="291.72" rx="53.5612" ry="55.2882" transform="rotate(-85.8013 462.749 291.72)" fill="black"/>
<ellipse cx="1071.99" cy="283.474" rx="53.5612" ry="55.2882" transform="rotate(-85.8013 1071.99 283.474)" fill="black"/>
<ellipse cx="774.8" cy="607.693" rx="53.5612" ry="55.2882" transform="rotate(-85.8013 774.8 607.693)" fill="black"/>
<ellipse cx="191.132" cy="624.277" rx="53.5612" ry="55.2882" transform="rotate(-85.8013 191.132 624.277)" fill="black"/>
<ellipse cx="228.702" cy="305.769" rx="53.5612" ry="55.2882" transform="rotate(-85.8013 228.702 305.769)" fill="black"/>
<ellipse cx="837.112" cy="312.375" rx="53.5612" ry="55.2882" transform="rotate(-85.8013 837.112 312.375)" fill="black"/>
<ellipse cx="1176.38" cy="941.699" rx="53.5612" ry="55.2882" transform="rotate(-85.8013 1176.38 941.699)" fill="black"/>
<ellipse cx="541.331" cy="614.326" rx="53.5612" ry="55.2882" transform="rotate(-85.8013 541.331 614.326)" fill="black"/>
<ellipse cx="580.307" cy="273.556" rx="53.5612" ry="55.2882" transform="rotate(-85.8013 580.307 273.556)" fill="black"/>
<ellipse cx="1188.97" cy="272.726" rx="53.5612" ry="55.2882" transform="rotate(-85.8013 1188.97 272.726)" fill="black"/>
<ellipse cx="891.542" cy="604.375" rx="53.5612" ry="55.2882" transform="rotate(-85.8013 891.542 604.375)" fill="black"/>
<ellipse cx="307.866" cy="620.963" rx="53.5612" ry="55.2882" transform="rotate(-85.8013 307.866 620.963)" fill="black"/>
<ellipse cx="345.432" cy="302.455" rx="53.5612" ry="55.2882" transform="rotate(-85.8013 345.432 302.455)" fill="black"/>
<ellipse cx="954.675" cy="294.209" rx="53.5612" ry="55.2882" transform="rotate(-85.8013 954.675 294.209)" fill="black"/>
<ellipse cx="658.065" cy="611.009" rx="53.5612" ry="55.2882" transform="rotate(-85.8013 658.065 611.009)" fill="black"/>
<ellipse cx="1008.27" cy="601.056" rx="53.5612" ry="55.2882" transform="rotate(-85.8013 1008.27 601.056)" fill="black"/>
<ellipse cx="108.346" cy="524.662" rx="53.5612" ry="55.2882" transform="rotate(-85.8013 108.346 524.662)" fill="black"/>
<ellipse cx="145.671" cy="213.586" rx="53.5612" ry="55.2882" transform="rotate(-85.8013 145.671 213.586)" fill="black"/>
<ellipse cx="742.249" cy="197.451" rx="53.5612" ry="55.2882" transform="rotate(-85.8013 742.249 197.451)" fill="black"/>
<ellipse cx="1095.82" cy="804.974" rx="53.5612" ry="55.2882" transform="rotate(-85.8013 1095.82 804.974)" fill="black"/>
<ellipse cx="1133.14" cy="493.898" rx="53.5612" ry="55.2882" transform="rotate(-85.8013 1133.14 493.898)" fill="black"/>
<ellipse cx="458.55" cy="514.711" rx="53.5612" ry="55.2882" transform="rotate(-85.8013 458.55 514.711)" fill="black"/>
<ellipse cx="495.874" cy="203.634" rx="53.5612" ry="55.2882" transform="rotate(-85.8013 495.874 203.634)" fill="black"/>
<ellipse cx="1092.46" cy="187.504" rx="53.5612" ry="55.2882" transform="rotate(-85.8013 1092.46 187.504)" fill="black"/>
<ellipse cx="795.846" cy="504.306" rx="53.5612" ry="55.2882" transform="rotate(-85.8013 795.846 504.306)" fill="black"/>
<ellipse cx="225.081" cy="521.347" rx="53.5612" ry="55.2882" transform="rotate(-85.8013 225.081 521.347)" fill="black"/>
<ellipse cx="262.405" cy="210.265" rx="53.5612" ry="55.2882" transform="rotate(-85.8013 262.405 210.265)" fill="black"/>
<ellipse cx="858.983" cy="194.14" rx="53.5612" ry="55.2882" transform="rotate(-85.8013 858.983 194.14)" fill="black"/>
<ellipse cx="575.284" cy="511.394" rx="53.5612" ry="55.2882" transform="rotate(-85.8013 575.284 511.394)" fill="black"/>
<ellipse cx="612.604" cy="200.314" rx="53.5612" ry="55.2882" transform="rotate(-85.8013 612.604 200.314)" fill="black"/>
<ellipse cx="912.581" cy="500.986" rx="53.5612" ry="55.2882" transform="rotate(-85.8013 912.581 500.986)" fill="black"/>
<ellipse cx="341.815" cy="518.027" rx="53.5612" ry="55.2882" transform="rotate(-85.8013 341.815 518.027)" fill="black"/>
<ellipse cx="379.139" cy="206.953" rx="53.5612" ry="55.2882" transform="rotate(-85.8013 379.139 206.953)" fill="black"/>
<ellipse cx="975.721" cy="190.822" rx="53.5612" ry="55.2882" transform="rotate(-85.8013 975.721 190.822)" fill="black"/>
<ellipse cx="679.112" cy="507.619" rx="53.5612" ry="55.2882" transform="rotate(-85.8013 679.112 507.619)" fill="black"/>
<ellipse cx="1029.32" cy="497.668" rx="53.5612" ry="55.2882" transform="rotate(-85.8013 1029.32 497.668)" fill="black"/>
<ellipse cx="117.878" cy="733.263" rx="53.5612" ry="55.2882" transform="rotate(-85.8013 117.878 733.263)" fill="black"/>
<ellipse cx="155.202" cy="422.183" rx="53.5612" ry="55.2882" transform="rotate(-85.8013 155.202 422.183)" fill="black"/>
<ellipse cx="737.225" cy="435.293" rx="53.5612" ry="55.2882" transform="rotate(-85.8013 737.225 435.293)" fill="black"/>
<ellipse cx="1105.35" cy="1013.57" rx="53.5612" ry="55.2882" transform="rotate(-85.8013 1105.35 1013.57)" fill="black"/>
<ellipse cx="1142.68" cy="702.498" rx="53.5612" ry="55.2882" transform="rotate(-85.8013 1142.68 702.498)" fill="black"/>
<ellipse cx="468.081" cy="723.31" rx="53.5612" ry="55.2882" transform="rotate(-85.8013 468.081 723.31)" fill="black"/>
<ellipse cx="506.233" cy="397.384" rx="53.5612" ry="55.2882" transform="rotate(-85.8013 506.233 397.384)" fill="black"/>
<ellipse cx="1089.66" cy="388.23" rx="53.5612" ry="55.2882" transform="rotate(-85.8013 1089.66 388.23)" fill="black"/>
<ellipse cx="792.475" cy="712.447" rx="53.5612" ry="55.2882" transform="rotate(-85.8013 792.475 712.447)" fill="black"/>
<ellipse cx="234.616" cy="729.941" rx="53.5612" ry="55.2882" transform="rotate(-85.8013 234.616 729.941)" fill="black"/>
<ellipse cx="272.182" cy="411.441" rx="53.5612" ry="55.2882" transform="rotate(-85.8013 272.182 411.441)" fill="black"/>
<ellipse cx="854.784" cy="417.129" rx="53.5612" ry="55.2882" transform="rotate(-85.8013 854.784 417.129)" fill="black"/>
<ellipse cx="584.815" cy="719.992" rx="53.5612" ry="55.2882" transform="rotate(-85.8013 584.815 719.992)" fill="black"/>
<ellipse cx="623.792" cy="379.222" rx="53.5612" ry="55.2882" transform="rotate(-85.8013 623.792 379.222)" fill="black"/>
<ellipse cx="909.21" cy="709.133" rx="53.5612" ry="55.2882" transform="rotate(-85.8013 909.21 709.133)" fill="black"/>
<ellipse cx="351.346" cy="726.631" rx="53.5612" ry="55.2882" transform="rotate(-85.8013 351.346 726.631)" fill="black"/>
<ellipse cx="388.917" cy="408.121" rx="53.5612" ry="55.2882" transform="rotate(-85.8013 388.917 408.121)" fill="black"/>
<ellipse cx="972.346" cy="398.965" rx="53.5612" ry="55.2882" transform="rotate(-85.8013 972.346 398.965)" fill="black"/>
<ellipse cx="675.741" cy="715.767" rx="53.5612" ry="55.2882" transform="rotate(-85.8013 675.741 715.767)" fill="black"/>
<ellipse cx="1025.94" cy="705.816" rx="53.5612" ry="55.2882" transform="rotate(-85.8013 1025.94 705.816)" fill="black"/>
</svg>
