<svg width="315" height="123" viewBox="0 0 315 123" fill="none" xmlns="http://www.w3.org/2000/svg">
<path d="M36.0828 0.24871C34.4302 0.560484 32.2628 1.54777 31.0978 2.53505C29.8787 3.54831 28.6054 5.93858 28.1719 7.93912C27.7113 10.0436 27.9552 18.3056 28.5512 20.3581C29.1472 22.5145 30.854 25.7622 32.4254 27.7627C33.1568 28.698 35.2159 31.3221 37.031 33.6345C41.9889 39.9219 42.5307 41.195 42.5307 46.3133C42.5307 49.2491 42.2056 50.73 41.3658 51.5874C40.1466 52.8865 37.8438 52.4968 36.9227 50.808C36.5163 50.1065 36.435 49.0413 36.3537 43.7931L36.2454 37.6356H31.7751H27.332L27.4133 45.4819C27.4946 52.9384 27.5488 53.4321 28.1177 54.8091C29.3369 57.719 31.2062 59.4597 34.1593 60.421C35.3242 60.7847 36.435 60.8887 39.5506 60.8887C42.9642 60.8627 43.6686 60.7847 44.9961 60.2911C47.1364 59.4857 48.4639 58.4724 49.656 56.8356C51.7692 53.8997 52.4194 50.6781 52.2026 44.3907C51.9588 37.2458 51.2273 35.635 44.1834 26.6455C41.5283 23.268 39.0358 19.9164 38.6566 19.2409C37.6271 17.4482 37.1123 15.2398 37.1123 12.7976C37.1123 9.39407 37.8709 8.01707 39.7402 8.01707C42.1785 8.01707 42.5307 8.90043 42.5307 15.2918V20.2282L46.9468 20.1762L51.3357 20.0983L51.417 15.1619C51.4982 9.54996 51.2002 6.4582 50.3875 4.69148C49.2767 2.27524 47.0009 0.71637 43.8583 0.222729C41.8263 -0.0890448 37.7625 -0.0630637 36.0828 0.24871Z" fill="white"/>
<path d="M0 30.4918V60.5H4.47021H8.94042L8.9946 47.3016L9.07588 34.1292H12.1915H15.3071L15.3884 47.3276L15.4425 60.5L19.994 60.448L24.5184 60.3701L24.5997 30.4139L24.6539 0.48359H20.0482H15.4425L15.3884 12.4869L15.3071 24.5161H12.1915H9.07588L8.9946 12.4869L8.94042 0.48359H4.47021H0V30.4918Z" fill="white"/>
<path d="M54.9961 30.4943V60.4766L65.6433 60.4246L76.2634 60.3726L76.3447 55.8779L76.3989 51.4091H70.3032H64.2074V42.7055V34.0018H68.8131H73.4188V29.4551V24.9084H68.8131H64.2074V17.1141V9.31971H70.0322H75.8571V4.90292V0.486129H65.4266H54.9961V30.4943Z" fill="white"/>
<path d="M92.5534 1.31499C92.418 2.01648 89.0856 28.9069 88.029 37.5067C87.8936 38.6499 87.2975 43.5083 86.7015 48.2889C86.0784 53.0694 85.5095 57.772 85.4282 58.7333L85.2656 60.5H89.0314C91.0904 60.5 92.9327 60.3961 93.1224 60.2922C93.2849 60.1882 93.6642 57.8759 94.0435 54.5763L94.6395 49.0683H97.9448H101.277L101.413 49.8997C101.521 50.3674 101.765 52.6797 102.009 55.044C102.252 57.4082 102.496 59.5907 102.578 59.9024C102.686 60.448 102.794 60.474 107.021 60.474C111.247 60.5 111.355 60.5 111.355 59.9804C111.355 59.6686 110.976 56.6548 110.543 53.2772C109.215 43.3525 106.316 21.3724 104.989 11.3957C104.339 6.32934 103.715 1.78265 103.634 1.31499L103.472 0.48359H98.0802H92.6889L92.5534 1.31499ZM98.893 26.5946C99.3536 30.7256 99.8412 35.1164 99.9767 36.3375C100.112 37.5587 100.248 38.9357 100.248 39.3773V40.2347H97.9448C95.8045 40.2347 95.6419 40.2087 95.6419 39.7151C95.6419 39.4033 96.1296 34.6488 96.7256 29.1408C97.3216 23.6068 97.8093 18.9562 97.8364 18.8003C97.8906 17.9689 98.1344 19.8136 98.893 26.5946Z" fill="white"/>
<path d="M112.973 30.4931V60.5013H117.578H122.184V47.121V33.7407H124.08C126.248 33.7407 127.413 34.1824 127.738 35.0917C127.873 35.4295 128.036 41.0154 128.117 47.5107C128.253 56.5262 128.361 59.462 128.632 59.9297C128.984 60.5013 129.065 60.5273 133.427 60.5013C135.866 60.4753 137.925 60.3974 137.979 60.3194C138.06 60.2675 137.925 59.7738 137.681 59.2542C137.274 58.4228 137.193 56.6561 137.085 45.1724C136.976 35.2217 136.868 31.8701 136.597 31.2725C136.164 30.3372 135.08 29.1681 134.05 28.5445L133.292 28.1028L134.403 27.2454C135.08 26.7258 135.811 25.8165 136.245 24.9331L136.949 23.4782L137.031 15.6319C137.112 9.16258 137.058 7.49979 136.705 6.20073C135.866 3.05702 133.807 1.31628 130.312 0.770678C129.336 0.614791 125.056 0.484886 120.775 0.484886H112.973V30.4931ZM126.735 9.03268C127.819 9.60426 128.009 10.6955 128.009 16.853C128.009 21.9193 127.955 22.8027 127.548 23.5301C126.79 24.8292 126.085 25.167 124.026 25.167H122.184V17.0349C122.184 12.5401 122.265 8.79885 122.401 8.69492C122.645 8.40913 126.085 8.69492 126.735 9.03268Z" fill="white"/>
<path d="M138.823 0.82039C138.768 1.00226 138.741 2.95084 138.768 5.15924L138.85 9.18631L142.697 9.26426L146.571 9.3422L146.625 34.8557L146.706 60.3691H151.177H155.647L155.728 34.8297L155.782 9.31622H159.575H163.368V4.89943V0.482636H151.177C141.451 0.482636 138.931 0.560579 138.823 0.82039Z" fill="white"/>
<path d="M179.515 1.44625C179.434 1.99185 179.109 4.4081 178.811 6.85033C177.944 13.8392 176.21 27.895 175.018 37.3782C174.422 42.1587 173.744 47.6667 173.528 49.5893C173.284 51.5119 172.932 54.4218 172.715 56.0326C172.498 57.6434 172.309 59.3062 172.309 59.6959V60.4494L176.291 60.3974L180.274 60.3715L180.463 59.3322C180.572 58.7606 180.843 56.2145 181.114 53.6683L181.601 49.0697H184.934H188.266L188.428 49.9011C188.483 50.3687 188.754 52.6291 188.97 54.9154C189.214 57.2018 189.458 59.3842 189.539 59.7739L189.675 60.4494L194.009 60.4754L198.317 60.5273V59.9298C198.317 59.592 197.586 53.8242 196.692 47.1211C195.798 40.392 194.091 27.4793 192.899 18.4119C191.707 9.34451 190.65 1.60214 190.569 1.18644L190.406 0.484948H185.042H179.678L179.515 1.44625ZM186.126 28.9083C186.722 34.3124 187.209 39.0929 187.209 39.4826V40.2361H184.879H182.522L182.712 38.3395C182.82 37.3262 183.335 32.5716 183.85 27.8171C184.365 23.0626 184.771 19.0095 184.798 18.8536C184.852 17.9183 185.123 19.9968 186.126 28.9083Z" fill="white"/>
<path d="M199.996 30.4139L200.077 60.3701H204.141H208.205L208.34 43.5083L208.475 26.6206L210.209 33.3757C211.158 37.065 213.081 44.5995 214.49 50.1075C215.899 55.5896 217.172 60.1882 217.362 60.2922C217.551 60.3961 219.231 60.5 221.155 60.5H224.595V30.4918V0.48359H220.396H216.197L216.17 16.2541L216.143 32.0507L214.815 26.8544C213.515 21.8141 212.214 16.5659 209.532 5.73178L208.232 0.48359H204.087H199.941L199.996 30.4139Z" fill="white"/>
<path d="M228.117 30.4658V60.5H234.701C238.304 60.5 242.341 60.3701 243.668 60.2402C248.03 59.7465 250.414 57.9798 251.742 54.2645L252.365 52.5758L252.446 30.9595C252.5 12.1491 252.473 9.10932 252.094 7.60242C251.525 5.26412 250.468 3.47142 249.005 2.40619C246.811 0.795363 245.998 0.665457 236.597 0.535552L228.117 0.431627V30.4658ZM241.121 8.87549C241.772 9.08334 242.232 9.47306 242.53 10.0966C242.991 10.928 243.018 12.4349 243.018 30.1021C243.018 47.7692 242.991 49.2762 242.53 50.1075C241.934 51.2767 241.094 51.6664 239.035 51.6664H237.329V30.1021V8.53774L238.764 8.56372C239.523 8.56372 240.607 8.69363 241.121 8.87549Z" fill="white"/>
<path d="M59.1684 61.6461C57.0552 62.1138 56.0528 62.6074 54.5356 63.9584C52.016 66.1928 51.3387 68.5311 51.3658 74.7926C51.42 82.405 52.314 84.5355 58.7349 92.7196C65.8059 101.683 65.833 101.709 65.8601 107.451C65.8601 111.972 65.5621 112.881 63.774 113.478C62.4736 113.92 61.4983 113.582 60.5771 112.387C60.0353 111.686 60.0082 111.27 59.9269 105.294L59.8457 98.955L55.3213 99.007L50.7969 99.0849V106.36C50.7969 113.167 50.8511 113.764 51.42 115.505C52.3953 118.545 54.6711 120.857 57.5157 121.714C59.4122 122.286 64.3159 122.494 66.4562 122.078C69.8156 121.455 72.5248 119.584 73.9607 116.908C75.2611 114.44 75.6675 112.153 75.6404 107.139C75.6404 99.059 74.9089 97.2403 68.3797 88.9003C60.9023 79.3912 60.5501 78.6638 60.7397 73.4935C60.821 70.6876 60.8481 70.5577 61.5796 69.9601C62.8258 68.9468 64.3159 69.1287 65.6163 70.4537C65.6434 70.4797 65.7247 72.9479 65.8059 75.9617L65.9685 81.4178L70.3845 81.4957L74.8276 81.5737L74.7193 74.6107L74.638 67.6478L73.7439 65.907C72.0642 62.6074 69.8427 61.5422 64.343 61.3863C61.9588 61.3084 60.2791 61.4123 59.1684 61.6461Z" fill="white"/>
<path d="M99.159 61.6185C95.041 62.5538 92.7381 64.8142 91.3835 69.205C90.9501 70.6339 90.8959 72.6085 90.8146 91.4188C90.7333 112.827 90.7875 114.256 91.8712 116.984C92.5756 118.829 94.5533 120.933 96.3143 121.713C98.3191 122.622 101.489 122.596 103.44 121.661C105.011 120.907 107.016 118.907 107.964 117.166C108.695 115.789 108.668 115.763 109.562 119.167L110.158 121.427L112.786 121.505L115.414 121.583V103.5V85.4432H108.912H102.41L102.464 89.9119L102.546 94.4067L104.659 94.4846L106.745 94.5625V102.279C106.745 106.748 106.636 110.411 106.474 110.957C105.905 112.905 103.277 113.918 101.624 112.827C100.216 111.866 100.243 112.1 100.243 91.5487C100.243 70.2182 100.188 70.9457 102.031 70.2182C103.25 69.7246 104.307 69.9324 105.146 70.7898C105.769 71.4393 105.797 71.6212 105.878 76.1159L105.959 80.7666H110.456H114.927L114.818 74.8429C114.71 69.7765 114.629 68.7373 114.141 67.4642C113.057 64.4764 111.269 62.7097 108.533 61.9043C106.691 61.3587 101.11 61.1768 99.159 61.6185Z" fill="white"/>
<path d="M163.637 61.4381C161.334 61.8538 159.384 62.7632 158.056 64.0103C155.591 66.3745 154.859 68.8168 154.886 74.6625C154.941 82.275 155.916 84.5873 162.77 93.291C167.782 99.6564 168.839 101.371 169.299 103.761C169.977 107.321 169.516 111.867 168.378 112.985C167.457 113.868 165.561 113.868 164.585 112.985C163.61 112.101 163.366 110.413 163.366 104.411V98.9549H158.896H154.426V106.1C154.426 113.816 154.588 115.115 155.807 117.427C157.677 121.013 161.497 122.572 167.674 122.26C176.316 121.87 179.757 116.856 179.269 105.45C178.944 98.3054 178.402 97.1622 170.383 86.8737C165.127 80.1186 164.477 78.8974 164.26 75.4679C163.962 70.9732 164.667 69.3364 166.807 69.3364C168.162 69.3364 168.974 69.908 169.326 71.1031C169.462 71.6227 169.597 74.1949 169.597 76.819V81.5475L174.013 81.4956L178.402 81.4176V75.3121C178.375 67.2839 177.942 65.5432 175.449 63.4387C173.715 61.9837 171.819 61.4901 167.701 61.3862C165.832 61.3602 164.016 61.3862 163.637 61.4381Z" fill="white"/>
<path d="M189.913 61.5647C185.795 62.3442 182.95 65.384 182.029 69.9566C181.894 70.6581 181.785 80.1932 181.785 91.9367C181.785 111.578 181.812 112.748 182.3 114.618C182.95 117.06 183.411 117.918 184.847 119.399C187.068 121.711 189.669 122.464 194.952 122.283C198.068 122.179 198.636 122.101 200.154 121.425C201.264 120.958 202.24 120.282 202.971 119.503C204.299 118.048 204.705 117.294 205.437 115.086C205.924 113.527 206.006 112.488 206.087 104.46L206.222 95.574L201.644 95.626L197.092 95.7039L196.957 103.758C196.821 112.124 196.74 112.644 195.602 113.241C194.735 113.683 193.028 113.553 192.27 112.981C191.024 112.046 190.969 111.137 191.051 90.7156C191.132 71.8792 191.132 71.6974 191.701 70.9699C192.514 69.9566 193.95 69.6708 195.25 70.2944C196.875 71.0478 196.957 71.3596 196.957 78.2186V84.4021H201.562H206.168V77.9588C206.141 71.1518 205.87 68.5536 204.868 66.4232C203.676 63.7991 201.156 62.0843 197.742 61.5647C195.711 61.227 191.647 61.253 189.913 61.5647Z" fill="white"/>
<path d="M245.509 61.6713C241.499 62.5286 238.952 65.0488 237.679 69.3357C237.218 70.9206 237.191 72.4275 237.191 91.6795C237.191 110.646 237.218 112.464 237.679 114.023C238.952 118.57 241.255 120.934 245.319 121.973C247.107 122.441 252.498 122.441 254.341 121.973C258.052 121.012 260.274 118.726 261.683 114.413C262.306 112.464 262.468 73.7785 261.872 70.4529C261.087 66.114 258.946 63.3341 255.452 62.087C253.23 61.3075 248.137 61.0997 245.509 61.6713ZM250.765 70.1151C251.902 70.5049 252.498 71.4662 252.796 73.3108C253.122 75.4932 253.095 108.541 252.769 110.49C252.417 112.62 251.523 113.504 249.762 113.504C248.218 113.504 247.216 112.828 246.809 111.477C246.592 110.828 246.538 104.384 246.592 91.1079L246.674 71.7L247.459 70.9206C248.137 70.2191 248.597 70.0112 249.681 69.8813C249.843 69.8813 250.331 69.9852 250.765 70.1151Z" fill="white"/>
<path d="M273.688 61.6713C269.679 62.5027 267.241 64.9449 265.859 69.4656C265.425 70.8686 265.371 72.8691 265.29 90.3804C265.236 103.423 265.317 110.438 265.507 111.893C266.265 117.453 268.92 120.804 273.499 121.973C275.26 122.441 280.678 122.441 282.439 121.973C286.395 120.96 288.752 118.466 289.917 114.023C290.215 112.854 290.296 108.671 290.296 91.5496C290.296 68.4783 290.35 69.4136 288.67 66.218C287.993 64.9189 286.124 63.1262 284.742 62.4507C282.521 61.3335 277.102 60.9698 273.688 61.6713ZM279.215 70.245C281.139 71.0245 281.085 70.297 281.085 91.4197C281.085 101.786 281.003 110.672 280.868 111.191C280.543 112.672 279.513 113.504 277.969 113.504C276.398 113.504 275.395 112.828 274.989 111.477C274.826 110.854 274.718 103.761 274.718 91.6015C274.718 71.5701 274.718 71.648 275.964 70.6088C276.452 70.1931 277.102 69.9593 277.915 69.8813C278.105 69.8813 278.673 70.0372 279.215 70.245Z" fill="white"/>
<path d="M0 91.7313V121.688L8.72368 121.558L17.4745 121.428L19.0187 120.7C20.9152 119.817 22.5407 118.076 23.2722 116.231C24.3288 113.529 24.41 111.399 24.3288 90.1204C24.2204 72.6351 24.1662 69.5434 23.814 68.4262C22.7845 65.3084 21.2674 63.5937 18.531 62.5544C17.0139 61.9829 16.5533 61.9569 8.47985 61.853L0 61.749V91.7313ZM12.7333 70.115C13.3564 70.2708 13.8712 70.6606 14.2234 71.2062C14.7381 72.0376 14.7652 72.6091 14.7652 91.2896C14.7652 112.23 14.7923 111.841 13.2481 112.594C12.8146 112.828 11.7309 112.984 10.7014 112.984H8.94042V91.6014C8.94042 79.8319 9.02169 70.115 9.13006 70.037C9.40098 69.7772 11.6496 69.8292 12.7333 70.115Z" fill="white"/>
<path d="M27.6328 91.6793V121.558L38.3342 121.61L49.0356 121.688V117.219V112.724L43.0212 112.672L36.9796 112.594L36.8983 103.942L36.8442 95.3167H41.4498H46.0555V90.77V86.2233H41.4498H36.8442V78.4289V70.6346H42.669H48.4938V66.2178V61.801H38.0633H27.6328V91.6793Z" fill="white"/>
<path d="M78.2969 91.6793V121.532L82.9025 121.61L87.5082 121.688V91.7313V61.801H82.9025H78.2969V91.6793Z" fill="white"/>
<path d="M118.664 91.6783V121.557H122.809H126.927L126.873 104.617C126.846 93.8608 126.927 87.8331 127.09 88.1709C127.306 88.6126 133.131 111.086 134.676 117.4C134.974 118.621 135.326 120.05 135.488 120.569L135.759 121.557H139.525H143.318V91.6783V61.8H139.119H134.919L134.865 77.7005L134.784 93.6009L132.779 85.5728C131.695 81.13 130.232 75.2842 129.582 72.5822C128.905 69.8542 128.038 66.3467 127.632 64.7879L126.9 61.9299L122.782 61.852L118.664 61.7741V91.6783Z" fill="white"/>
<path d="M209.148 91.6783V121.557H213.754H218.36V108.436V95.3157H221.475H224.591V108.436V121.557H229.197H233.802V91.6783V61.8H229.197H224.591V73.8813V85.9625H221.475H218.36V73.8813V61.8H213.754H209.148V91.6783Z" fill="white"/>
<path d="M293.684 91.6783V121.557H303.979H314.274V117.01V112.463H308.584H302.895V87.1316V61.8H298.289H293.684V91.6783Z" fill="white"/>
</svg>
